<?xml version="1.0" encoding="UTF-8"?>
<svg xmlns="http://www.w3.org/2000/svg" viewBox="0 0 900 600" width="900" height="600">
  <defs>
    <style>

      .title     { font: 700 18px 'Inter', sans-serif; fill: #0F172A; }
      .subtitle  { font: 11px 'Inter', sans-serif; fill: #64748B; }
      .node-name { font: 600 13px 'Inter', sans-serif; fill: #0F172A; }
      .node-sub  { font: 10px 'Inter', sans-serif; fill: #64748B; }
      .edge-lbl  { font: 500 10px 'Inter', sans-serif; fill: #64748B; }
      .footnote  { font: 10px 'Inter', sans-serif; fill: #64748B; opacity: 0.75; }
    </style>
    <marker id="arrB" viewBox="0 0 10 10" refX="9" refY="5" markerWidth="8" markerHeight="8" orient="auto-start-reverse">
      <path d="M 0 0 L 10 5 L 0 10 z" fill="#64748B"/>
    </marker>
  </defs>
  <rect width="900" height="600" fill="#FFFFFF"/>
  <text x="40" y="38" class="title">Project Structure · AI Agentic Platform</text>
  <text x="40" y="58" class="subtitle">Colour-coded by concern (cyan = app/, violet = tests/, teal = root/docs/, rose = diagrams/)</text>
  <rect x="40" y="90" width="820" height="70" rx="8" fill="#FFFFFF" stroke="#CBD5E1" stroke-width="1.2"/>
  <rect x="40" y="90" width="4" height="70" rx="2" fill="#64748B"/>
  <text x="56" y="112" class="node-name">.</text>
  <text x="56" y="128" class="node-sub">pyproject.toml · docker-compose.yml · .env.example · README · SPEC</text>
  <rect x="40" y="180" width="320" height="90" rx="8" fill="#FFFFFF" stroke="#CBD5E1" stroke-width="1.2"/>
  <rect x="40" y="180" width="4" height="90" rx="2" fill="#E11D48"/>
  <text x="56" y="202" class="node-name">diagrams/</text>
  <text x="56" y="218" class="node-sub">architecture · workflow · project-structure · multi-agent-coordination</text>
  <rect x="380" y="180" width="220" height="90" rx="8" fill="#FFFFFF" stroke="#CBD5E1" stroke-width="1.2"/>
  <rect x="380" y="180" width="4" height="90" rx="2" fill="#0E7490"/>
  <text x="396" y="202" class="node-name">docs/</text>
  <text x="396" y="218" class="node-sub">PROJECT_OVERVIEW.md</text>
  <rect x="620" y="180" width="240" height="90" rx="8" fill="#FFFFFF" stroke="#CBD5E1" stroke-width="1.2"/>
  <rect x="620" y="180" width="4" height="90" rx="2" fill="#0E7490"/>
  <text x="636" y="202" class="node-name">scripts/</text>
  <text x="636" y="218" class="node-sub">verify_stack.py</text>
  <rect x="40" y="290" width="320" height="260" rx="8" fill="#FFFFFF" stroke="#CBD5E1" stroke-width="1.2"/>
  <rect x="40" y="290" width="4" height="260" rx="2" fill="#0EA5E9"/>
  <text x="56" y="312" class="node-name">app/</text>
  <text x="56" y="328" class="node-sub">Python package</text>
  <rect x="60" y="320" width="280" height="60" rx="8" fill="#FFFFFF" stroke="#CBD5E1" stroke-width="1.2"/>
  <rect x="60" y="320" width="4" height="60" rx="2" fill="#2563EB"/>
  <text x="76" y="342" class="node-name">main.py · settings.py</text>
  <text x="76" y="358" class="node-sub">FastAPI bootstrap</text>
  <rect x="60" y="395" width="280" height="60" rx="8" fill="#FFFFFF" stroke="#CBD5E1" stroke-width="1.2"/>
  <rect x="60" y="395" width="4" height="60" rx="2" fill="#2563EB"/>
  <text x="76" y="417" class="node-name">api/</text>
  <text x="76" y="433" class="node-sub">tasks · agents · runs · review</text>
  <rect x="60" y="470" width="280" height="60" rx="8" fill="#FFFFFF" stroke="#CBD5E1" stroke-width="1.2"/>
  <rect x="60" y="470" width="4" height="60" rx="2" fill="#2563EB"/>
  <text x="76" y="492" class="node-name">orchestrator/</text>
  <text x="76" y="508" class="node-sub">agent · queue · decision_boundary · langgraph_flow</text>
  <rect x="380" y="290" width="240" height="240" rx="8" fill="#FFFFFF" stroke="#CBD5E1" stroke-width="1.2"/>
  <rect x="380" y="290" width="4" height="240" rx="2" fill="#0EA5E9"/>
  <text x="396" y="312" class="node-name">app/ (cont.)</text>
  <rect x="400" y="320" width="200" height="60" rx="8" fill="#FFFFFF" stroke="#CBD5E1" stroke-width="1.2"/>
  <rect x="400" y="320" width="4" height="60" rx="2" fill="#2563EB"/>
  <text x="416" y="342" class="node-name">rag/</text>
  <text x="416" y="358" class="node-sub">embeddings · retriever · memory</text>
  <rect x="400" y="395" width="200" height="60" rx="8" fill="#FFFFFF" stroke="#CBD5E1" stroke-width="1.2"/>
  <rect x="400" y="395" width="4" height="60" rx="2" fill="#2563EB"/>
  <text x="416" y="417" class="node-name">observability/</text>
  <text x="416" y="433" class="node-sub">logging · tracing · eval</text>
  <rect x="400" y="470" width="200" height="60" rx="8" fill="#FFFFFF" stroke="#CBD5E1" stroke-width="1.2"/>
  <rect x="400" y="470" width="4" height="60" rx="2" fill="#2563EB"/>
  <text x="416" y="492" class="node-name">models/ · db/</text>
  <text x="416" y="508" class="node-sub">SQLAlchemy ORM · migrations</text>
  <rect x="640" y="290" width="220" height="260" rx="8" fill="#FFFFFF" stroke="#CBD5E1" stroke-width="1.2"/>
  <rect x="640" y="290" width="4" height="260" rx="2" fill="#7C3AED"/>
  <text x="656" y="312" class="node-name">tests/</text>
  <text x="656" y="328" class="node-sub">79 passed · 2 skipped</text>
  <rect x="660" y="320" width="180" height="60" rx="8" fill="#FFFFFF" stroke="#CBD5E1" stroke-width="1.2"/>
  <rect x="660" y="320" width="4" height="60" rx="2" fill="#2563EB"/>
  <text x="676" y="342" class="node-name">test_orchestrator.py</text>
  <rect x="660" y="395" width="180" height="60" rx="8" fill="#FFFFFF" stroke="#CBD5E1" stroke-width="1.2"/>
  <rect x="660" y="395" width="4" height="60" rx="2" fill="#2563EB"/>
  <text x="676" y="417" class="node-name">test_api.py</text>
  <rect x="660" y="470" width="180" height="60" rx="8" fill="#FFFFFF" stroke="#CBD5E1" stroke-width="1.2"/>
  <rect x="660" y="470" width="4" height="60" rx="2" fill="#2563EB"/>
  <text x="676" y="492" class="node-name">test_ui.py</text>
  <text x="676" y="508" class="node-sub">network-dependent</text>
</svg>
